# xmcd
#
# Track frame offsets:
#	150
#	14727
#	29060
#	49400
#	71982
#	82105
#	98012
#	113687
#	131765
#	145880
#	162760
#	186982
#	198962
#	219012
#	233895
#
# Disc length: 3227 seconds
#
# Revision: 1
# Processed by: cddbd v1.5.2PL0 Copyright (c) Steve Scherf et al.
# Submitted via: audiograbber 1.83.01
#
DISCID=dd0c990f
DTITLE=Various Artist - Let´s Go FC - 50 Jahre 1.FC Köln
DYEAR=1997
DGENRE=Kölsches
TTITLE0=De Höhner - Unser Hätz Schläät För De FC Kölle
TTITLE1=Zeltinger Band - Müngerdorfer Stadion
TTITLE2=De Bläck Fööss - Indianer Kriesche Nit
TTITLE3=Toni Polster and Die Fabul. Thekenschlampen - Toni, Lass Es Polstern
TTITLE4=Arno Steffen - Supergut
TTITLE5=Wolfgang Hildebrandt - Ali
TTITLE6=Purple Schulz u. die neue Heimat - Die Trainerbank
TTITLE7=Paul Steiner and Stephan Engels - Fussballshow
TTITLE8=De Höhner - Pizza Wundaba
TTITLE9=Baddiel and Skinner and Lightning Seeds - Three Lions
TTITLE10=BAP - Nix Wie Bessher
TTITLE11=Gerry and The Peacemakers - You´ll Never Walk Alone
TTITLE12=Hot Chocolate - So You Win Again
TTITLE13=Acts Unidet - We Are The Champions
TTITLE14=Wiener Philharmoniker - Aida (Triumphmarsch)
EXTD=YEAR: 1997
EXTT0=
EXTT1=
EXTT2=
EXTT3=
EXTT4=
EXTT5=
EXTT6=
EXTT7=
EXTT8=
EXTT9=
EXTT10=
EXTT11=
EXTT12=
EXTT13=
EXTT14=
PLAYORDER=
